<svg xmlns="http://www.w3.org/2000/svg" version="1.1"
	 width="3171.4285714285716"
	 height="2112.133254655763" viewBox="0 0 3171.4285714285716 2112.133254655763">

    <g transform="scale(8.57142857142857) translate(10, 10)">
        <defs id="SvgjsDefs1063">
            <linearGradient id="SvgjsLinearGradient1070">
                <stop id="SvgjsStop1071" stop-color="#905e26" offset="0"></stop>
                <stop id="SvgjsStop1072" stop-color="#f5ec9b" offset="0.5"></stop>
                <stop id="SvgjsStop1073" stop-color="#905e26" offset="1"></stop>
            </linearGradient>
            <linearGradient id="SvgjsLinearGradient1074">
                <stop id="SvgjsStop1075" stop-color="#905e26" offset="0"></stop>
                <stop id="SvgjsStop1076" stop-color="#f5ec9b" offset="0.5"></stop>
                <stop id="SvgjsStop1077" stop-color="#905e26" offset="1"></stop>
            </linearGradient>
            <linearGradient id="SvgjsLinearGradient1078">
                <stop id="SvgjsStop1079" stop-color="#905e26" offset="0"></stop>
                <stop id="SvgjsStop1080" stop-color="#f5ec9b" offset="0.5"></stop>
                <stop id="SvgjsStop1081" stop-color="#905e26" offset="1"></stop>
            </linearGradient>
        </defs>
        <g id="SvgjsG1064" featureKey="cWd8YO-0"
           transform="matrix(2.2580645161290325,0,0,2.2580645161290325,95.96774193548387,-12.41936129908408)"
           fill="url(#SvgjsLinearGradient1070)">
            <path xmlns="http://www.w3.org/2000/svg"
                  d="M26.3,5.6c-2.2,0-4.1,1.3-5.3,3.3c1.2,0.1,2.4,0.4,3.4,1c0.5,0.3,0.7,0.9,0.4,1.3s-0.9,0.7-1.3,0.4c-1-0.5-2-0.8-3.1-0.8  c-3.7,0-6.7,3.1-6.7,6.9c0,3.2,2.1,5.9,5.1,6.7c0.5,0.1,0.9,0.7,0.7,1.2c-0.1,0.5-0.5,0.8-1,0.8c-0.1,0-0.2,0-0.2,0  c-3.1-0.8-5.4-3.2-6.3-6.1c-3.4,0.6-6,3.9-6,7.8c0,1.8,0.5,3.4,1.5,4.8c0,0,0,0,0,0c0,0,0,0,0,0c0.6,0.8,1.3,1.5,2.1,2.1  c0.5,0.3,0.6,0.9,0.3,1.4c-0.2,0.3-0.5,0.5-0.9,0.5c-0.2,0-0.4-0.1-0.5-0.2c-0.8-0.5-1.5-1.1-2.1-1.8C5,36.2,4,38.4,4,40.7  c0,4.1,3,7.5,6.7,7.5c1.6,0,3.2-0.7,4.4-1.9c0.4-0.4,1-0.4,1.4,0c0.4,0.4,0.4,1,0,1.4c-1.6,1.6-3.7,2.4-5.8,2.4  c-1.4,0-2.7-0.4-3.8-1c-0.3,0.9-0.5,1.9-0.5,2.9c0,4.3,3.1,7.8,7,7.8c1.4,0,2.7-0.5,3.9-1.3c0.5-0.3,1.1-0.2,1.4,0.2  s0.2,1.1-0.2,1.4c-0.1,0.1-0.1,0.1-0.2,0.1c1.4,2.5,3.8,4,6.5,4c4.3,0,7.7-3.9,7.7-8.6l0-39.7v-3.5C32.5,8.7,29.7,5.6,26.3,5.6z   M15.3,36.8c-0.6,0-1-0.5-1-1c0-2.3-1.1-3.9-2.1-4.1c-0.5-0.1-0.9-0.7-0.8-1.2c0.1-0.5,0.7-0.9,1.2-0.7c2.1,0.5,3.7,3,3.7,6.1  C16.3,36.3,15.8,36.8,15.3,36.8z M22.8,18.9c0.6-2.2,2.9-3.7,5.5-3.7c0.5,0,1,0.4,1,1c0,0.5-0.5,1-1,1c-1.8,0-3.3,0.9-3.6,2.2  c-0.1,0.5-0.5,0.8-1,0.8c-0.1,0-0.2,0-0.2,0C23,20,22.7,19.4,22.8,18.9z M21.2,48.1c-0.2,0.4-0.5,0.6-0.9,0.6c-0.1,0-0.2,0-0.4-0.1  c-0.5-0.2-0.8-0.8-0.6-1.3c0.5-1.3-0.1-3.3-1.5-4.6c-0.4-0.4-0.4-1,0-1.4c0.4-0.4,1-0.4,1.4,0C21.2,43.3,21.9,46.1,21.2,48.1z   M21.5,30.8c-0.4-0.4-0.5-1-0.1-1.4c1.5-1.7,4.3-2,6.6-0.8c0.5,0.3,0.7,0.9,0.4,1.3c-0.3,0.5-0.9,0.7-1.3,0.4  c-1.6-0.8-3.3-0.7-4.2,0.3c-0.2,0.2-0.5,0.3-0.8,0.3C21.9,31,21.6,31,21.5,30.8z M26.3,58.3c-0.2,0.4-0.5,0.6-0.9,0.6  c-0.1,0-0.2,0-0.4-0.1c-0.5-0.2-0.8-0.8-0.6-1.3c0.5-1.3-0.1-3.3-1.5-4.6c-0.4-0.4-0.4-1,0-1.4c0.4-0.4,1-0.4,1.4,0  C26.3,53.5,27,56.3,26.3,58.3z M29.6,43.5c-0.1,0.4-0.5,0.6-0.9,0.6c-0.1,0-0.2,0-0.4-0.1c-1.8-0.7-3-2.9-3-5.6c0-0.6,0.4-1,1-1  c0.5,0,1,0.4,1,1c0,2,0.9,3.4,1.7,3.7C29.6,42.4,29.8,43,29.6,43.5z"></path>
            <path xmlns="http://www.w3.org/2000/svg"
                  d="M54.9,46.3c1.2,1.2,2.8,1.9,4.4,1.9c3.7,0,6.7-3.4,6.7-7.5c0-2.3-1-4.5-2.5-5.9c-0.6,0.7-1.3,1.3-2.1,1.8  c-0.2,0.1-0.3,0.2-0.5,0.2c-0.3,0-0.7-0.2-0.8-0.5c-0.3-0.5-0.2-1.1,0.3-1.4c0.9-0.5,1.6-1.2,2.2-2.1c0,0,0,0,0,0s0,0,0,0  c0.9-1.3,1.5-3,1.5-4.8c0-3.9-2.6-7.2-6-7.8c-0.9,3-3.2,5.3-6.3,6.1c-0.1,0-0.2,0-0.3,0c-0.4,0-0.8-0.3-1-0.8  c-0.1-0.5,0.2-1.1,0.7-1.2c3-0.8,5.1-3.5,5.1-6.7c0-3.8-3-6.9-6.7-6.9c-1.1,0-2.1,0.3-3.1,0.8c-0.5,0.3-1.1,0.1-1.3-0.4  c-0.3-0.5-0.1-1.1,0.4-1.3c1.1-0.6,2.2-0.9,3.4-1c-1.1-2-3.1-3.3-5.3-3.3c-3.4,0-6.2,3.1-6.2,7v3.5l0,39.7c0,4.8,3.5,8.6,7.7,8.6  c2.7,0,5.1-1.5,6.5-4c-0.1-0.1-0.1-0.1-0.2-0.1c-0.4-0.3-0.5-1-0.2-1.4c0.3-0.4,1-0.5,1.4-0.2c1.1,0.9,2.5,1.3,3.9,1.3  c3.9,0,7-3.5,7-7.8c0-1-0.2-2-0.5-2.9c-1.2,0.6-2.4,1-3.8,1c-2.2,0-4.2-0.9-5.8-2.4c-0.4-0.4-0.4-1,0-1.4C53.8,46,54.5,46,54.9,46.3  z M57.4,29.7c0.5-0.1,1.1,0.2,1.2,0.7c0.1,0.5-0.2,1.1-0.8,1.2c-1,0.2-2.1,1.8-2.1,4.1c0,0.5-0.5,1-1,1c-0.6,0-1-0.5-1-1  C53.7,32.7,55.3,30.2,57.4,29.7z M41.6,15.1c2.7,0,5,1.6,5.5,3.7c0.1,0.5-0.2,1.1-0.7,1.2c-0.1,0-0.2,0-0.3,0c-0.4,0-0.8-0.3-1-0.8  c-0.3-1.3-1.8-2.2-3.6-2.2c-0.5,0-1-0.5-1-1C40.6,15.6,41.1,15.1,41.6,15.1z M41.7,44.1c-0.1,0.1-0.2,0.1-0.4,0.1  c-0.4,0-0.8-0.2-0.9-0.6c-0.2-0.5,0-1.1,0.6-1.3c0.8-0.3,1.7-1.7,1.7-3.7c0-0.6,0.5-1,1-1c0.6,0,1,0.4,1,1  C44.7,41.2,43.5,43.4,41.7,44.1z M47.1,53c-1.3,1.4-2,3.3-1.5,4.6c0.2,0.5-0.1,1.1-0.6,1.3c-0.1,0-0.2,0.1-0.4,0.1  c-0.4,0-0.8-0.2-0.9-0.6c-0.8-2,0-4.8,1.9-6.7c0.4-0.4,1-0.4,1.4,0C47.4,52,47.4,52.6,47.1,53z M47.1,30.7c-0.9-1-2.7-1.2-4.2-0.3  c-0.5,0.3-1.1,0.1-1.4-0.4c-0.3-0.5-0.1-1.1,0.4-1.3c2.4-1.2,5.2-0.9,6.6,0.8c0.4,0.4,0.3,1-0.1,1.4C48.4,31,48.1,31,47.9,31  C47.6,31,47.3,30.9,47.1,30.7z M52.2,42.8c-1.3,1.4-2,3.3-1.5,4.6c0.2,0.5-0.1,1.1-0.6,1.3c-0.1,0.1-0.2,0.1-0.4,0.1  c-0.4,0-0.8-0.2-0.9-0.6c-0.8-2,0-4.8,1.9-6.7c0.4-0.4,1-0.4,1.4,0C52.5,41.8,52.5,42.4,52.2,42.8z"></path>
        </g>
        <g id="SvgjsG1065" featureKey="TZbA6h-0"
           transform="matrix(2.7199255511449314,0,0,2.7199255511449314,-2.121541852075352,137.87721409126956)"
           fill="url(#SvgjsLinearGradient1074)">
            <path d="M0.78 20 l0 -2.32 l1.44 0 l0 -8.58 l-1.44 0 l0 -2.32 l6.86 0 c4.34 0 6.46 2.66 6.46 6.36 c0 3.56 -1.98 6.86 -6.44 6.86 l-6.88 0 z M5.58 17.48 l2 0 c1.98 0 2.98 -1.42 2.98 -4.2 c0 -2.72 -0.96 -3.98 -3.1 -3.98 l-1.88 0 l0 8.18 z M21.68 17.02 l2.74 0.48 c-0.52 1.74 -1.76 2.78 -4.26 2.78 c-3.12 0 -4.92 -1.62 -4.92 -4.84 c0 -2.6 1.16 -5.06 4.78 -5.06 c2.94 0 4.4 1.62 4.4 4.64 l0 1.02 l-5.92 0 c0.08 1.34 0.46 1.92 1.76 1.92 c0.8 0 1.28 -0.22 1.42 -0.94 z M18.54 14.14 l2.6 0 l0 -0.02 c0 -1.1 -0.42 -1.52 -1.24 -1.52 c-0.76 0 -1.2 0.36 -1.36 1.54 z M31.900000000000002 17.02 l2.74 0.48 c-0.52 1.74 -1.76 2.78 -4.26 2.78 c-3.12 0 -4.92 -1.62 -4.92 -4.84 c0 -2.6 1.16 -5.06 4.78 -5.06 c2.94 0 4.4 1.62 4.4 4.64 l0 1.02 l-5.92 0 c0.08 1.34 0.46 1.92 1.76 1.92 c0.8 0 1.28 -0.22 1.42 -0.94 z M28.76 14.14 l2.6 0 l0 -0.02 c0 -1.1 -0.42 -1.52 -1.24 -1.52 c-0.76 0 -1.2 0.36 -1.36 1.54 z M35.720000000000006 24.56 l0 -2.26 l1.06 0 l0 -9.38 l-1.36 0 l0 -2.26 l4.26 0 l0 1.18 c0.06 -0.2 0.62 -1.46 2.68 -1.46 c3 0 3.98 2.54 3.98 4.8 c0 2.88 -1.56 5.1 -4.16 5.1 c-1.54 0 -2.22 -0.88 -2.28 -0.96 l0 2.98 l1.06 0 l0 2.26 l-5.24 0 z M41.5 17.96 c0.64 0 1.6 -0.26 1.6 -2.68 c0 -1.92 -0.6 -2.58 -1.56 -2.58 c-1.06 0 -1.64 0.8 -1.64 2.7 c0 1.7 0.46 2.56 1.6 2.56 z M51.480000000000004 20 l0 -2.32 l1.44 0 l0 -8.58 l-1.44 0 l0 -2.32 l6.86 0 c4.34 0 6.46 2.66 6.46 6.36 c0 3.56 -1.98 6.86 -6.44 6.86 l-6.88 0 z M56.28 17.48 l2 0 c1.98 0 2.98 -1.42 2.98 -4.2 c0 -2.72 -0.96 -3.98 -3.1 -3.98 l-1.88 0 l0 8.18 z M66.16 20 l0 -2.26 l1.06 0 l0 -4.82 l-1.36 0 l0 -2.26 l4.48 0 l0 7.08 l1.06 0 l0 2.26 l-5.24 0 z M66.7 7.4 c0 -1.02 0.84 -1.84 1.86 -1.84 c1.04 0 1.86 0.82 1.86 1.84 s-0.82 1.86 -1.86 1.86 c-1.02 0 -1.86 -0.84 -1.86 -1.86 z M75.66 13.9 l-3.1 -0.58 c-0.02 -0.1 -0.02 -0.2 -0.02 -0.3 c0 -1.48 1.44 -2.64 4.3 -2.64 s3.92 1.18 3.92 3.76 l0 2.2 c0 0.86 0.02 1.36 0.66 1.36 c0.12 0 0.26 -0.02 0.44 -0.06 l-0.56 2.46 c-0.34 0.06 -0.64 0.08 -0.9 0.08 c-1.48 0 -2.12 -0.7 -2.34 -1.3 c-0.48 0.68 -1.2 1.4 -2.66 1.4 c-1.7 0 -3.16 -0.96 -3.16 -2.74 c0 -2.16 2.14 -3.14 5.4 -3.16 l0 -0.28 c0 -1.06 -0.26 -1.44 -1.02 -1.44 c-0.64 0 -0.98 0.26 -0.98 0.96 c0 0.08 0 0.18 0.02 0.28 z M77.64 16.88 l0 -0.74 c-1.22 0.02 -2.26 0.24 -2.26 1.16 c0 0.52 0.34 0.76 0.86 0.76 c0.6 0 1.32 -0.32 1.4 -1.18 z M90.06 9.7 l0 -1.14 l2.46 0.38 c0.06 0.36 0.08 0.66 0.08 0.86 c0 0.82 -0.34 1.52 -1.42 2.04 c0.38 0.5 0.6 1.16 0.6 1.92 c0 2.2 -1.66 3.5 -4.52 3.5 c-0.66 0 -1.24 -0.06 -1.76 -0.2 c-0.2 0.16 -0.32 0.34 -0.32 0.52 c0 0.76 1.9 0.7 3.38 0.8 c2.48 0.18 3.94 0.88 3.94 2.92 c0 2.78 -2.68 3.54 -5.1 3.54 c-2.68 0 -4.76 -0.92 -4.76 -2.56 c0 -1.02 0.76 -1.64 1.62 -2.16 c-1 -0.26 -1.62 -0.86 -1.62 -1.74 c0 -0.76 0.48 -1.38 1.34 -2.04 c-0.74 -0.58 -1.12 -1.44 -1.12 -2.5 c0 -2.14 1.58 -3.46 4.5 -3.46 c0.94 0 1.74 0.14 2.4 0.42 c0.22 -0.28 0.3 -0.5 0.3 -1.1 z M86.2 20.68 c-0.7 0.48 -0.88 0.74 -0.88 1.04 c0 0.44 0.38 0.9 2.08 0.9 c1.38 0 2.28 -0.3 2.28 -0.96 c0 -0.46 -0.42 -0.76 -1.22 -0.8 c-1.08 -0.06 -1.48 -0.1 -2.26 -0.18 z M87.3 15.2 c0.82 0 1.24 -0.5 1.24 -1.4 c0 -0.88 -0.42 -1.36 -1.22 -1.36 s-1.22 0.5 -1.22 1.4 c0 0.84 0.36 1.36 1.2 1.36 z M93.32 20 l0 -2.26 l1.06 0 l0 -4.82 l-1.36 0 l0 -2.26 l4.26 0 l0 1.7 c0.44 -1.06 1.22 -1.98 2.48 -1.98 c1.4 0 1.84 0.7 1.84 0.7 l-1.26 2.96 s-0.3 -0.66 -1.22 -0.66 c-0.84 0 -1.32 0.78 -1.62 1.62 l0 2.74 l1.06 0 l0 2.26 l-5.24 0 z M105.36 13.9 l-3.1 -0.58 c-0.02 -0.1 -0.02 -0.2 -0.02 -0.3 c0 -1.48 1.44 -2.64 4.3 -2.64 s3.92 1.18 3.92 3.76 l0 2.2 c0 0.86 0.02 1.36 0.66 1.36 c0.12 0 0.26 -0.02 0.44 -0.06 l-0.56 2.46 c-0.34 0.06 -0.64 0.08 -0.9 0.08 c-1.48 0 -2.12 -0.7 -2.34 -1.3 c-0.48 0.68 -1.2 1.4 -2.66 1.4 c-1.7 0 -3.16 -0.96 -3.16 -2.74 c0 -2.16 2.14 -3.14 5.4 -3.16 l0 -0.28 c0 -1.06 -0.26 -1.44 -1.02 -1.44 c-0.64 0 -0.98 0.26 -0.98 0.96 c0 0.08 0 0.18 0.02 0.28 z M107.34 16.88 l0 -0.74 c-1.22 0.02 -2.26 0.24 -2.26 1.16 c0 0.52 0.34 0.76 0.86 0.76 c0.6 0 1.32 -0.32 1.4 -1.18 z M112.52 20 l0 -2.26 l1.06 0 l0 -4.82 l-1.36 0 l0 -2.26 l4.26 0 l0 1.68 c0.26 -0.64 1.04 -1.96 3.06 -1.96 c1.2 0 2.34 0.5 2.74 2.02 c0.22 -0.54 0.98 -2.02 3.14 -2.02 c1.38 0 2.98 0.56 2.98 3.48 l0 3.88 l1.06 0 l0 2.26 l-5.04 0 l0 -2.26 l0.86 0 l0 -3.08 c0 -1.1 -0.26 -1.64 -0.9 -1.64 c-1.08 0 -1.64 1.3 -1.82 1.86 l0 2.86 l0.86 0 l0 2.26 l-4.84 0 l0 -2.26 l0.86 0 l0 -3.08 c0 -1.08 -0.26 -1.64 -0.9 -1.64 c-1.12 0 -1.68 1.38 -1.84 1.92 l0 2.8 l0.86 0 l0 2.26 l-5.04 0 z"></path>
        </g>
        <g id="SvgjsG1066" featureKey="hKLqjk-0"
           transform="matrix(0.7234141204008606,0,0,0.7234141204008606,92.80002445440226,211.7302402842894)"
           fill="url(#SvgjsLinearGradient1078)">
            <path d="M7.46 20.3 l-4.92 -0.000039062 c-0.16 0 -0.31334 -0.04666 -0.46 -0.14 s-0.25332 -0.21334 -0.31998 -0.36 c-0.12 -0.21334 -0.13334 -0.45334 -0.04 -0.72 l0 -13.68 c0 -0.24 0.08666 -0.44666 0.26 -0.62 s0.38668 -0.26 0.64002 -0.26 l4.82 0 c1.0533 0 2.0134 0.22666 2.88 0.68 s1.6067 1.0467 2.22 1.78 s1.0867 1.5667 1.42 2.5 s0.5 1.88 0.5 2.84 c0 1.1867 -0.20334 2.27 -0.61 3.25 s-0.94 1.82 -1.6 2.52 s-1.41 1.2433 -2.25 1.63 s-1.6867 0.58 -2.54 0.58 z M7.44 6.279999999999999 l-3.94 -0.000078126 l0 12.26 l3.96 0 c0.76 0 1.4567 -0.18334 2.09 -0.55 s1.1833 -0.84332 1.65 -1.43 s0.83 -1.2533 1.09 -2 s0.39 -1.4933 0.39 -2.24 c0 -0.76 -0.12666 -1.5033 -0.38 -2.23 s-0.61 -1.3733 -1.07 -1.94 s-1.0133 -1.02 -1.66 -1.36 s-1.3567 -0.51 -2.13 -0.51 z M44.04 20.3 l-6.88 -0.000019531 c-0.25334 0 -0.46668 -0.08666 -0.64002 -0.26 s-0.26 -0.38 -0.26 -0.62 l0 -0.04 l0 -0.04 l0 -13.94 c0 -0.24 0.08666 -0.44666 0.26 -0.62 s0.38668 -0.26 0.64002 -0.26 l6.88 0 c0.25334 0 0.46668 0.08666 0.64002 0.26 s0.26 0.38 0.26 0.62 c0 0.25334 -0.08666 0.46334 -0.26 0.63 s-0.38668 0.25 -0.64002 0.25 l-6 0 l0 5.1 l5.06 0 c0.24 0 0.44666 0.08334 0.62 0.25 s0.26 0.37666 0.26 0.63 c0 0.24 -0.08666 0.44666 -0.26 0.62 s-0.38 0.26 -0.62 0.26 l-5.06 0 l0 5.38 l6 0 c0.25334 0 0.46668 0.08666 0.64002 0.26 s0.26 0.38668 0.26 0.64002 c0 0.24 -0.08666 0.44666 -0.26 0.62 s-0.38668 0.26 -0.64002 0.26 z M70 20.3 c-0.61334 0 -1.1867 -0.11668 -1.72 -0.35002 s-1 -0.55 -1.4 -0.95 s-0.71666 -0.86666 -0.95 -1.4 s-0.35 -1.1067 -0.35 -1.72 c0 -0.25334 0.08666 -0.46668 0.26 -0.64002 s0.38668 -0.26 0.64002 -0.26 c0.24 0 0.44666 0.08666 0.62 0.26 s0.26 0.38668 0.26 0.64002 c0 0.36 0.07 0.7 0.21 1.02 s0.33 0.6 0.57 0.84 s0.52 0.43 0.84 0.57 s0.66 0.21 1.02 0.21 s0.70334 -0.07 1.03 -0.21 s0.61 -0.33 0.85 -0.57 s0.43 -0.52 0.57 -0.84 s0.21 -0.66 0.21 -1.02 c0 -0.44 -0.08666 -0.80334 -0.26 -1.09 s-0.41334 -0.53666 -0.72 -0.75 c-0.14666 -0.10666 -0.31332 -0.20332 -0.49998 -0.28998 s-0.38 -0.17666 -0.58 -0.27 c-0.2 -0.08 -0.40666 -0.16 -0.62 -0.24 s-0.43334 -0.16 -0.66 -0.24 c-0.44 -0.16 -0.88334 -0.34 -1.33 -0.54 s-0.84666 -0.45 -1.2 -0.75 s-0.64334 -0.67334 -0.87 -1.12 s-0.34 -0.99666 -0.34 -1.65 c0 -0.61334 0.11666 -1.1867 0.35 -1.72 s0.55 -1 0.95 -1.4 s0.86666 -0.71666 1.4 -0.95 s1.1067 -0.35 1.72 -0.35 s1.19 0.11666 1.73 0.35 s1.01 0.55 1.41 0.95 s0.71666 0.86666 0.95 1.4 s0.35 1.1067 0.35 1.72 c0 0.24 -0.08666 0.44666 -0.26 0.62 s-0.38668 0.26 -0.64002 0.26 c-0.24 0 -0.44666 -0.08666 -0.62 -0.26 s-0.26 -0.38 -0.26 -0.62 c0 -0.36 -0.07 -0.70334 -0.21 -1.03 s-0.33 -0.61 -0.57 -0.85 s-0.52334 -0.43 -0.85 -0.57 s-0.67 -0.21 -1.03 -0.21 s-0.7 0.07 -1.02 0.21 s-0.6 0.33 -0.84 0.57 s-0.43 0.52334 -0.57 0.85 s-0.21 0.67 -0.21 1.03 c0 0.4 0.08334 0.73334 0.25 1 s0.40332 0.5 0.70998 0.7 c0.32 0.2 0.68 0.38 1.08 0.54 l0.64 0.24 l0.66 0.24 c0.44 0.16 0.88334 0.34334 1.33 0.55 s0.84666 0.46666 1.2 0.78 s0.64334 0.70334 0.87 1.17 s0.34 1.04 0.34 1.72 c0 0.61334 -0.11666 1.1867 -0.35 1.72 s-0.55 1 -0.95 1.4 s-0.87 0.71666 -1.41 0.95 s-1.1167 0.35 -1.73 0.35 z M97.14 20.3 c-0.25334 0 -0.46668 -0.08666 -0.64002 -0.26 s-0.26 -0.38 -0.26 -0.62 l0 -14.02 c0 -0.24 0.08666 -0.44666 0.26 -0.62 s0.38668 -0.26 0.64002 -0.26 c0.24 0 0.44666 0.08666 0.62 0.26 s0.26 0.38 0.26 0.62 l0 14.02 c0 0.24 -0.08666 0.44666 -0.26 0.62 s-0.38 0.26 -0.62 0.26 z M133.45999999999998 17.96 c-0.76 0.76 -1.6234 1.3399 -2.59 1.7399 s-1.99 0.6 -3.07 0.6 c-1.1067 0 -2.1434 -0.21 -3.11 -0.63 s-1.81 -0.99 -2.53 -1.71 s-1.29 -1.5633 -1.71 -2.53 s-0.63 -2.0034 -0.63 -3.11 s0.21 -2.1334 0.63 -3.08 s0.99334 -1.77 1.72 -2.47 s1.5733 -1.25 2.54 -1.65 s1.9967 -0.6 3.09 -0.6 c1.08 0 2.1034 0.2 3.07 0.6 s1.83 0.98 2.59 1.74 c0.17334 0.17334 0.26 0.38 0.26 0.62 s-0.08666 0.44666 -0.26 0.62 c-0.18666 0.18666 -0.4 0.28 -0.64 0.28 s-0.44666 -0.09334 -0.62 -0.28 c-0.6 -0.58666 -1.2733 -1.0367 -2.02 -1.35 s-1.54 -0.47 -2.38 -0.47 c-0.85334 0 -1.6567 0.15334 -2.41 0.46 s-1.41 0.73 -1.97 1.27 s-1.0033 1.18 -1.33 1.92 s-0.49 1.5367 -0.49 2.39 s0.16334 1.6567 0.49 2.41 s0.77 1.41 1.33 1.97 s1.2167 1.0033 1.97 1.33 s1.5567 0.49 2.41 0.49 c0.77334 0 1.5133 -0.13334 2.22 -0.4 s1.3467 -0.65332 1.92 -1.16 l0 -3.76 l-4.04 0 c-0.25334 0 -0.46668 -0.08666 -0.64002 -0.26 s-0.26 -0.38 -0.26 -0.62 c0 -0.25334 0.08666 -0.46668 0.26 -0.64002 s0.38668 -0.26 0.64002 -0.26 l4.92 0 c0.25334 0 0.46668 0.08666 0.64002 0.26 s0.26 0.38668 0.26 0.64002 l0 5.02 c0 0.24 -0.08666 0.44666 -0.26 0.62 z M165.70000000000002 20.3 c-0.33334 0 -0.58668 -0.14 -0.76002 -0.42 l-7.22 -11.44 l0 10.98 c0 0.24 -0.08334 0.44666 -0.25 0.62 s-0.37666 0.26 -0.63 0.26 c-0.24 0 -0.44666 -0.08666 -0.62 -0.26 s-0.26 -0.38 -0.26 -0.62 l0 -14.02 c0 -0.24 0.08666 -0.44666 0.26 -0.62 s0.38 -0.26 0.62 -0.26 c0.33334 0 0.58668 0.13334 0.76002 0.4 l7.22 11.44 l0 -10.96 c0 -0.24 0.08334 -0.44666 0.25 -0.62 s0.37666 -0.26 0.63 -0.26 c0.24 0 0.44666 0.08666 0.62 0.26 s0.26 0.38 0.26 0.62 l0 14.02 c0 0.24 -0.08666 0.44666 -0.26 0.62 s-0.38 0.26 -0.62 0.26 z M196.60000000000002 20.3 l-6.88 -0.000019531 c-0.25334 0 -0.46668 -0.08666 -0.64002 -0.26 s-0.26 -0.38 -0.26 -0.62 l0 -0.04 l0 -0.04 l0 -13.94 c0 -0.24 0.08666 -0.44666 0.26 -0.62 s0.38668 -0.26 0.64002 -0.26 l6.88 0 c0.25334 0 0.46668 0.08666 0.64002 0.26 s0.26 0.38 0.26 0.62 c0 0.25334 -0.08666 0.46334 -0.26 0.63 s-0.38668 0.25 -0.64002 0.25 l-6 0 l0 5.1 l5.06 0 c0.24 0 0.44666 0.08334 0.62 0.25 s0.26 0.37666 0.26 0.63 c0 0.24 -0.08666 0.44666 -0.26 0.62 s-0.38 0.26 -0.62 0.26 l-5.06 0 l0 5.38 l6 0 c0.25334 0 0.46668 0.08666 0.64002 0.26 s0.26 0.38668 0.26 0.64002 c0 0.24 -0.08666 0.44666 -0.26 0.62 s-0.38668 0.26 -0.64002 0.26 z M223.00000000000003 13.36 l-0.24 -0.000039062 l0.26 -0.46 l3.62 6.06 c0.08 0.14666 0.12 0.3 0.12 0.46 c0 0.24 -0.08666 0.44666 -0.26 0.62 s-0.38 0.26 -0.62 0.26 c-0.16 0 -0.31 -0.04 -0.45 -0.12 s-0.25 -0.18666 -0.33 -0.32 l-3.88 -6.5 l-0.86 0 l0 6.06 c0 0.24 -0.08666 0.44666 -0.26 0.62 s-0.38 0.26 -0.62 0.26 c-0.25334 0 -0.46668 -0.08666 -0.64002 -0.26 s-0.26 -0.38 -0.26 -0.62 l0 -14.02 c0 -0.24 0.08666 -0.44666 0.26 -0.62 s0.38668 -0.26 0.64002 -0.26 l3.52 0 c0.61334 0 1.19 0.11666 1.73 0.35 s1.01 0.55 1.41 0.95 s0.71666 0.86666 0.95 1.4 s0.35 1.1067 0.35 1.72 s-0.11666 1.1867 -0.35 1.72 s-0.55 1 -0.95 1.4 s-0.87 0.71666 -1.41 0.95 s-1.1167 0.35 -1.73 0.35 z M223.00000000000003 6.279999999999999 l-2.64 0 l0 5.3 l2.64 0 c0.36 0 0.70334 -0.07 1.03 -0.21 s0.61 -0.33 0.85 -0.57 s0.43 -0.52 0.57 -0.84 s0.21 -0.66 0.21 -1.02 s-0.07 -0.70334 -0.21 -1.03 s-0.33 -0.61 -0.57 -0.85 s-0.52334 -0.43 -0.85 -0.57 s-0.67 -0.21 -1.03 -0.21 z"></path>
        </g>
    </g>
</svg>
	